<svg xmlns="http://www.w3.org/2000/svg" xmlns:xlink="http://www.w3.org/1999/xlink" version="1.1" width="96" height="96" viewBox="4.8 -9.6 96.0 129.6">
<path d="M65.336 96h-34.668c-0.96 0-1.784-0.684-1.964-1.628l-12.668-66.624c-0.096-0.496 0.004-1.012 0.272-1.44l16-25.376c0.364-0.584 1.004-0.932 1.692-0.932h28c0.688 0 1.328 0.352 1.692 0.932l16 25.376c0.268 0.428 0.368 0.944 0.272 1.44l-12.668 66.624c-0.172 0.944-0.996 1.628-1.96 1.628zM32.328 92h31.356l12.212-64.224-14.992-23.776h-25.796l-14.988 23.776 12.208 64.224z" fill="gray"/>
	<path d="M48.004 54c-1.104 0-2-0.9-2-2v-32c0-1.104 0.896-2 2-2 1.1 0 2 0.896 2 2v32c0 1.1-0.9 2-2 2z" fill="gray"/>
	<path d="M58.004 32h-20c-1.104 0-2-0.896-2-2s0.896-2 2-2h20c1.1 0 2 0.896 2 2s-0.9 2-2 2z" fill="gray"/>
</svg>