<svg xmlns="http://www.w3.org/2000/svg" xmlns:xlink="http://www.w3.org/1999/xlink" version="1.1" width="100" height="96" viewBox="5.0 -9.6 100.0 129.6">
<path d="M42 87.144h-40c-1.104 0-2-0.896-2-2v-35.416c0-9.944 11.592-16.876 22-16.876s22 6.904 22 16.812v35.476c0 1.112-0.896 2.004-2 2.004zM4 83.144h36v-33.476c0-6.584-8.748-12.812-18-12.812s-18 6.256-18 12.876v33.412z" fill="gray"/>
	<path d="M22 69.144c-1.104 0-2-0.896-2-2v-24c0-1.104 0.896-2 2-2s2 0.896 2 2v24c0 1.108-0.896 2-2 2z" fill="gray"/>
	<path d="M28 51.144h-12c-1.104 0-2-0.896-2-2s0.896-2 2-2h12c1.104 0 2 0.896 2 2s-0.896 2-2 2z" fill="gray"/>
	<path d="M98 87.144h-40c-1.1 0-2-0.896-2-2v-35.416c0-9.944 11.592-16.876 22-16.876s22 6.904 22 16.812v35.476c0 1.112-0.9 2.004-2 2.004zM60 83.144h36v-33.476c0-6.584-8.752-12.812-18-12.812s-18 6.256-18 12.876v33.412z" fill="gray"/>
	<path d="M78 69.144c-1.1 0-2-0.896-2-2v-24c0-1.104 0.9-2 2-2s2 0.896 2 2v24c0 1.108-0.9 2-2 2z" fill="gray"/>
	<path d="M84 51.144h-12c-1.1 0-2-0.896-2-2s0.9-2 2-2h12c1.1 0 2 0.896 2 2s-0.9 2-2 2z" fill="gray"/>
	<path d="M70 37.144c-1.1 0-2-0.896-2-2v-9.476c0-6.584-8.752-12.812-18-12.812-9.252 0-18 6.256-18 12.876v9.416c0 1.104-0.896 2-2 2s-2-0.896-2-2v-9.416c0-9.944 11.592-16.876 22-16.876s22 6.904 22 16.812v9.476c0 1.104-0.9 2-2 2z" fill="gray"/>
	<path d="M50 45.144c-1.104 0-2-0.896-2-2v-24c0-1.104 0.896-2 2-2s2 0.896 2 2v24c0 1.104-0.896 2-2 2z" fill="gray"/>
	<path d="M56 27.144h-12c-1.104 0-2-0.896-2-2s0.896-2 2-2h12c1.1 0 2 0.896 2 2s-0.9 2-2 2z" fill="gray"/>
	<path d="M56 75.144h-12c-1.104 0-2-0.896-2-2s0.896-2 2-2h12c1.1 0 2 0.896 2 2s-0.9 2-2 2z" fill="gray"/>
</svg>